<svg width="226" height="65" viewBox="0 0 226 65" fill="none" xmlns="http://www.w3.org/2000/svg">
<path d="M45.6035 20.368H61.4435V22.852H48.5195V31.744H60.7235V34.228H48.5195V46H45.6035V20.368ZM72.6651 46.252C70.9611 46.252 69.4611 45.868 68.1651 45.1C66.8691 44.332 65.8611 43.24 65.1411 41.824C64.4451 40.408 64.0971 38.752 64.0971 36.856C64.0971 34.96 64.4451 33.304 65.1411 31.888C65.8611 30.472 66.8691 29.38 68.1651 28.612C69.4611 27.844 70.9611 27.46 72.6651 27.46C74.3691 27.46 75.8691 27.844 77.1651 28.612C78.4611 29.38 79.4571 30.472 80.1531 31.888C80.8731 33.304 81.2331 34.96 81.2331 36.856C81.2331 38.752 80.8731 40.408 80.1531 41.824C79.4571 43.24 78.4611 44.332 77.1651 45.1C75.8691 45.868 74.3691 46.252 72.6651 46.252ZM72.6651 43.84C74.4651 43.84 75.8451 43.252 76.8051 42.076C77.7651 40.876 78.2451 39.136 78.2451 36.856C78.2451 34.648 77.7531 32.944 76.7691 31.744C75.7851 30.52 74.4171 29.908 72.6651 29.908C70.8891 29.908 69.5091 30.52 68.5251 31.744C67.5411 32.944 67.0491 34.648 67.0491 36.856C67.0491 39.136 67.5291 40.876 68.4891 42.076C69.4731 43.252 70.8651 43.84 72.6651 43.84ZM93.2667 46.252C91.5627 46.252 90.0627 45.868 88.7667 45.1C87.4707 44.332 86.4627 43.24 85.7427 41.824C85.0467 40.408 84.6987 38.752 84.6987 36.856C84.6987 34.96 85.0467 33.304 85.7427 31.888C86.4627 30.472 87.4707 29.38 88.7667 28.612C90.0627 27.844 91.5627 27.46 93.2667 27.46C94.9707 27.46 96.4707 27.844 97.7667 28.612C99.0627 29.38 100.059 30.472 100.755 31.888C101.475 33.304 101.835 34.96 101.835 36.856C101.835 38.752 101.475 40.408 100.755 41.824C100.059 43.24 99.0627 44.332 97.7667 45.1C96.4707 45.868 94.9707 46.252 93.2667 46.252ZM93.2667 43.84C95.0667 43.84 96.4467 43.252 97.4067 42.076C98.3667 40.876 98.8467 39.136 98.8467 36.856C98.8467 34.648 98.3547 32.944 97.3707 31.744C96.3867 30.52 95.0187 29.908 93.2667 29.908C91.4907 29.908 90.1107 30.52 89.1267 31.744C88.1427 32.944 87.6507 34.648 87.6507 36.856C87.6507 39.136 88.1307 40.876 89.0907 42.076C90.0747 43.252 91.4667 43.84 93.2667 43.84ZM122.328 19.504V46H119.448V42.724C118.92 43.852 118.116 44.728 117.036 45.352C115.98 45.952 114.744 46.252 113.328 46.252C111.744 46.252 110.34 45.856 109.116 45.064C107.916 44.272 106.98 43.168 106.308 41.752C105.636 40.312 105.3 38.656 105.3 36.784C105.3 34.912 105.624 33.28 106.272 31.888C106.944 30.472 107.892 29.38 109.116 28.612C110.34 27.844 111.744 27.46 113.328 27.46C114.744 27.46 115.98 27.772 117.036 28.396C118.092 28.996 118.884 29.848 119.412 30.952V19.504H122.328ZM113.904 43.84C115.68 43.84 117.048 43.24 118.008 42.04C118.968 40.816 119.448 39.088 119.448 36.856C119.448 34.648 118.968 32.944 118.008 31.744C117.048 30.52 115.68 29.908 113.904 29.908C112.128 29.908 110.736 30.508 109.728 31.708C108.744 32.908 108.252 34.6 108.252 36.784C108.252 39.016 108.744 40.756 109.728 42.004C110.736 43.228 112.128 43.84 113.904 43.84ZM137.713 20.368H147.937C150.577 20.368 152.629 21.004 154.093 22.276C155.581 23.548 156.325 25.3 156.325 27.532C156.325 29.764 155.581 31.528 154.093 32.824C152.605 34.096 150.553 34.732 147.937 34.732H140.665V46H137.713V20.368ZM147.685 32.284C149.581 32.284 151.009 31.876 151.969 31.06C152.929 30.244 153.409 29.068 153.409 27.532C153.409 25.996 152.929 24.832 151.969 24.04C151.009 23.224 149.581 22.816 147.685 22.816H140.665V32.284H147.685ZM160.802 19.504H163.718V46H160.802V19.504ZM185.328 27.892V46H182.448V42.724C181.92 43.852 181.116 44.728 180.036 45.352C178.98 45.952 177.744 46.252 176.328 46.252C174.72 46.252 173.304 45.868 172.08 45.1C170.88 44.332 169.944 43.252 169.272 41.86C168.624 40.444 168.3 38.8 168.3 36.928C168.3 35.056 168.636 33.412 169.308 31.996C169.98 30.556 170.916 29.44 172.116 28.648C173.34 27.856 174.744 27.46 176.328 27.46C177.744 27.46 178.98 27.772 180.036 28.396C181.092 29.02 181.896 29.896 182.448 31.024V27.892H185.328ZM176.904 43.84C178.68 43.84 180.048 43.24 181.008 42.04C181.968 40.816 182.448 39.088 182.448 36.856C182.448 34.624 181.968 32.908 181.008 31.708C180.048 30.508 178.68 29.908 176.904 29.908C175.128 29.908 173.736 30.532 172.728 31.78C171.744 33.004 171.252 34.72 171.252 36.928C171.252 39.136 171.744 40.84 172.728 42.04C173.712 43.24 175.104 43.84 176.904 43.84ZM198.562 46.252C196.81 46.252 195.274 45.868 193.954 45.1C192.658 44.332 191.65 43.252 190.93 41.86C190.234 40.444 189.886 38.8 189.886 36.928C189.886 35.056 190.246 33.412 190.966 31.996C191.686 30.556 192.706 29.44 194.026 28.648C195.37 27.856 196.93 27.46 198.706 27.46C199.93 27.46 201.106 27.676 202.234 28.108C203.386 28.516 204.334 29.092 205.078 29.836L204.106 31.996C203.194 31.276 202.306 30.748 201.442 30.412C200.602 30.076 199.738 29.908 198.85 29.908C197.002 29.908 195.55 30.532 194.494 31.78C193.438 33.004 192.91 34.72 192.91 36.928C192.91 39.112 193.426 40.816 194.458 42.04C195.514 43.24 196.978 43.84 198.85 43.84C199.738 43.84 200.602 43.672 201.442 43.336C202.306 43 203.194 42.472 204.106 41.752L205.078 43.912C204.31 44.632 203.338 45.208 202.162 45.64C201.01 46.048 199.81 46.252 198.562 46.252ZM223.946 36.856H210.662C210.686 39.16 211.214 40.9 212.246 42.076C213.302 43.252 214.826 43.84 216.818 43.84C218.93 43.84 220.874 43.132 222.65 41.716L223.622 43.84C222.83 44.584 221.81 45.172 220.562 45.604C219.338 46.036 218.078 46.252 216.782 46.252C213.95 46.252 211.73 45.424 210.122 43.768C208.514 42.088 207.71 39.796 207.71 36.892C207.71 35.044 208.07 33.412 208.79 31.996C209.51 30.556 210.518 29.44 211.814 28.648C213.11 27.856 214.586 27.46 216.242 27.46C218.642 27.46 220.526 28.252 221.894 29.836C223.262 31.396 223.946 33.556 223.946 36.316V36.856ZM216.278 29.728C214.766 29.728 213.53 30.184 212.57 31.096C211.634 32.008 211.034 33.292 210.77 34.948H221.318C221.174 33.244 220.67 31.948 219.806 31.06C218.966 30.172 217.79 29.728 216.278 29.728Z" fill="white"/>
<path d="M14.0436 31.5C14.0436 46.1355 45.5812 58 29.3639 58C13.1467 58 0 46.1355 0 31.5C0 16.8645 13.1467 5 29.3639 5C45.5812 5 14.0436 16.8645 14.0436 31.5Z" fill="url(#paint0_linear)"/>
<defs>
<linearGradient id="paint0_linear" x1="17" y1="5" x2="17" y2="58" gradientUnits="userSpaceOnUse">
<stop stop-color="#EF8A17"/>
<stop offset="0.505208" stop-color="#EDB87B"/>
<stop offset="1" stop-color="#F7C892"/>
</linearGradient>
</defs>
</svg>
