<svg width="428" height="494" viewBox="0 0 428 494" fill="none" xmlns="http://www.w3.org/2000/svg">
<rect width="428" height="494" fill="black"/>
<rect x="197" y="78" width="25" height="25" fill="white"/>
<rect x="353" y="122" width="25" height="25" fill="#FFBC0A"/>
<path d="M375 98C375 79.4348 368.152 61.6301 355.962 48.5025C343.772 35.375 327.239 28 310 28C292.761 28 276.228 35.375 264.038 48.5025C251.848 61.6301 245 79.4348 245 98L270.063 98C270.063 86.5933 274.271 75.6538 281.76 67.5881C289.25 59.5223 299.408 54.991 310 54.991C320.592 54.991 330.75 59.5223 338.24 67.5881C345.729 75.6538 349.937 86.5933 349.937 98H375Z" fill="#FFC0CB"/>
<path d="M239 396C258.891 396 277.968 389.152 292.033 376.962C306.098 364.772 314 348.239 314 331C314 313.761 306.098 297.228 292.033 285.038C277.968 272.848 258.891 266 239 266L239 291.063C251.221 291.063 262.942 295.271 271.584 302.76C280.226 310.25 285.081 320.408 285.081 331C285.081 341.592 280.226 351.75 271.584 359.24C262.942 366.729 251.221 370.937 239 370.937L239 396Z" fill="#5B3758"/>
<path d="M179 108C179 152.183 143.183 188 99 188C54.8172 188 19 152.183 19 108C19 63.8172 54.8172 28 99 28C143.183 28 179 63.8172 179 108ZM50.9196 108C50.9196 134.554 72.4459 156.08 99 156.08C125.554 156.08 147.08 134.554 147.08 108C147.08 81.4459 125.554 59.9196 99 59.9196C72.4459 59.9196 50.9196 81.4459 50.9196 108Z" fill="#F2E863"/>
<rect x="237" y="122" width="100" height="100" fill="white"/>
<rect x="252" y="137" width="70" height="70" fill="black"/>
<circle cx="365.5" cy="180.5" r="12.5" fill="#F2E863"/>
<circle cx="249.5" cy="429.5" r="12.5" fill="#874000"/>
<circle cx="186.5" cy="209.5" r="12.5" fill="#7A918D"/>
<rect x="19" y="262" width="180" height="180" fill="#FCB0B3"/>
<rect x="318" y="424" width="57" height="18" fill="#FCB0B3"/>
<rect x="61" y="218" width="57" height="18" fill="white"/>
</svg>
