<svg width="45" height="60" viewBox="0 0 45 60" fill="none" xmlns="http://www.w3.org/2000/svg">
<path d="M11.4165 9.34324C15.5998 9.16881 19.7888 9.20305 23.9747 9.24855C25.8452 9.29381 27.7165 9.3019 29.5871 9.34454C30.0487 9.35495 29.832 9.35028 30.2372 9.3587L32.1462 8.05109C31.7158 8.05952 31.9463 8.05485 31.4548 8.06524C29.4908 8.10722 27.5261 8.11672 25.5621 8.16124C21.4685 8.20436 17.3711 8.24916 13.2804 8.06655L11.4165 9.34324V9.34324Z" fill="white"/>
<path d="M29.9053 10.0802C30.1417 13.2701 29.73 16.4766 29.232 19.6276C29.0337 20.8825 28.8314 22.1378 28.5669 23.3817C28.2851 24.7074 27.9182 26.0158 27.5938 27.3328C26.4171 30.4496 26.0295 32.2007 23.8858 34.9157C22.1605 37.1009 19.623 39.2191 16.9923 40.4007C15.5139 41.0648 12.9267 40.8118 11.472 40.7856C10.6449 40.4382 9.73914 40.224 8.99088 39.7433C7.01139 38.4718 6.01059 36.171 6.10546 33.9641C6.18233 32.1758 6.76456 31.2591 7.47375 29.6406C8.48178 27.8982 9.66493 26.2144 11.1692 24.8114C12.3038 23.7532 13.6297 22.9446 14.9712 22.1483L13.0061 22.8696C11.7093 23.6714 10.4195 24.4868 9.33209 25.5433C8.91909 25.9446 8.54635 26.3822 8.18488 26.8254C6.91754 28.3795 6.86749 28.6097 5.80488 30.3669C5.10574 31.9975 4.50147 32.9851 4.44254 34.7864C4.36821 37.0584 5.46511 39.3997 7.52374 40.6641C8.31368 41.1493 9.26007 41.3573 10.1282 41.7039C11.2197 41.7075 12.3392 41.9465 13.4026 41.7147C16.2712 41.0896 19.6346 39.4575 21.8966 37.6294C23.0846 36.6692 24.1763 35.5867 25.1086 34.4019C27.2771 31.6461 27.6527 29.9239 28.8455 26.7658C29.1874 25.4379 29.567 24.1181 29.8712 22.782C30.1576 21.5238 30.3832 20.2538 30.6168 18.986C31.2212 15.707 31.7085 12.4058 31.9747 9.08618L29.9053 10.0802V10.0802Z" fill="white"/>
<path d="M30.7781 8.57235C30.7899 8.57235 30.7995 8.56331 30.7995 8.55217C30.7995 8.54102 30.7899 8.53198 30.7781 8.53198C30.7662 8.53198 30.7567 8.54102 30.7567 8.55217C30.7567 8.56331 30.7662 8.57235 30.7781 8.57235Z" fill="white" stroke="white" stroke-width="0.264583"/>
<path d="M33.3302 0.255981C31.938 0.359564 30.5317 0.286094 29.1414 0.410352C28.2833 0.487048 27.4256 0.587944 26.5799 0.745182C25.7024 0.908348 24.8206 1.08271 23.9796 1.37006C23.1533 1.65241 22.395 2.08729 21.6026 2.44591C20.4512 3.29172 19.1167 3.9536 18.1484 4.98333C17.5604 5.60865 17.2326 6.45198 17.0641 7.27241C16.8793 8.17277 16.9182 9.12486 17.1137 10.0232C17.6241 12.368 19.0148 14.2745 20.5917 16.0879C21.506 17.1394 22.57 18.0667 23.5592 19.0561C25.6655 20.9696 28.1244 23.1581 30.1269 25.1642C31.1306 26.1696 32.1331 27.18 33.0486 28.2577C34.6463 30.1386 36.0719 32.1304 36.9787 34.4008C37.3606 35.3573 37.5168 36.3808 37.7859 37.3708C37.7526 38.3402 37.8836 39.3272 37.686 40.2791C37.2363 42.4444 36.1772 43.9825 34.613 45.5819C33.8746 46.3369 33.0482 47.0214 32.1658 47.6236C29.616 49.3639 30.239 49.1447 27.9938 48.9623C27.0757 48.9975 26.157 49.1169 25.2397 49.0679C23.0207 48.9496 20.9535 48.278 19.4033 46.7331C18.414 45.7472 18.3299 45.2548 17.8089 44.0562C17.7389 43.6271 17.6143 43.2027 17.5989 42.7688C17.5732 42.0474 17.7632 41.2819 18.0728 40.6254C18.4317 39.8645 19.008 39.2795 19.6247 38.7051L17.5357 39.5257C16.9619 40.1233 16.4334 40.7303 16.1198 41.4957C15.6087 42.743 15.669 43.722 16.0214 45.0025C16.5928 46.2143 16.7039 46.7289 17.7399 47.7168C19.383 49.2837 21.5229 49.938 23.8215 50.0479C24.7613 50.0928 25.7018 49.9718 26.6419 49.9337C28.1143 49.4597 29.6328 49.0978 31.0591 48.5117C32.8835 47.7621 34.7889 46.3516 36.1084 44.9738C37.6655 43.3479 38.7611 41.7521 39.1883 39.5616C39.3757 38.6004 39.2174 37.6072 39.232 36.63C38.9322 35.6442 38.7447 34.6216 38.3328 33.6724C37.3632 31.4385 35.8431 29.4298 34.2203 27.5884C33.2805 26.522 32.2485 25.5306 31.2374 24.5238C28.7779 22.0747 27.285 20.7284 24.7499 18.3742C23.7898 17.3764 22.7468 16.4443 21.8695 15.381C19.8683 12.9556 17.9428 9.79826 18.6972 6.56962C18.9542 5.46969 19.8327 4.57176 20.1997 3.50194C20.9863 3.13301 21.7362 2.68446 22.5594 2.39514C23.3852 2.10492 24.2539 1.9285 25.1196 1.77284C27.2016 1.39849 29.3011 1.45264 31.4021 1.57661L33.3302 0.255981V0.255981Z" fill="white"/>
<path d="M28.3482 8.9249C28.3876 8.9249 28.4196 8.89478 28.4196 8.85762C28.4196 8.82047 28.3876 8.79034 28.3482 8.79034C28.3088 8.79034 28.2769 8.82047 28.2769 8.85762C28.2769 8.89478 28.3088 8.9249 28.3482 8.9249Z" fill="white" stroke="white" stroke-width="0.264583"/>
</svg>
